<svg width="929" height="138" viewBox="0 0 929 138" fill="none" xmlns="http://www.w3.org/2000/svg">
<rect width="929" height="138" rx="69" fill="black"/>
<path d="M68.6364 44.4545H75.3636L91.1818 83.0909H91.7273L107.545 44.4545H114.273V91H109V55.6364H108.545L94 91H88.9091L74.3636 55.6364H73.9091V91H68.6364V44.4545ZM131.919 91.8182C129.707 91.8182 127.7 91.4015 125.897 90.5682C124.094 89.7197 122.662 88.5 121.601 86.9091C120.541 85.303 120.01 83.3636 120.01 81.0909C120.01 79.0909 120.404 77.4697 121.192 76.2273C121.98 74.9697 123.033 73.9848 124.351 73.2727C125.669 72.5606 127.124 72.0303 128.715 71.6818C130.321 71.3182 131.934 71.0303 133.556 70.8182C135.677 70.5455 137.397 70.3409 138.715 70.2045C140.048 70.053 141.018 69.803 141.624 69.4545C142.245 69.1061 142.556 68.5 142.556 67.6364V67.4545C142.556 65.2121 141.942 63.4697 140.715 62.2273C139.503 60.9848 137.662 60.3636 135.192 60.3636C132.631 60.3636 130.624 60.9242 129.169 62.0455C127.715 63.1667 126.692 64.3636 126.101 65.6364L121.01 63.8182C121.919 61.697 123.131 60.0455 124.647 58.8636C126.177 57.6667 127.844 56.8333 129.647 56.3636C131.465 55.8788 133.253 55.6364 135.01 55.6364C136.131 55.6364 137.419 55.7727 138.874 56.0455C140.344 56.303 141.76 56.8409 143.124 57.6591C144.503 58.4773 145.647 59.7121 146.556 61.3636C147.465 63.0152 147.919 65.2273 147.919 68V91H142.556V86.2727H142.283C141.919 87.0303 141.313 87.8409 140.465 88.7045C139.616 89.5682 138.487 90.303 137.078 90.9091C135.669 91.5152 133.95 91.8182 131.919 91.8182ZM132.737 87C134.859 87 136.647 86.5833 138.101 85.75C139.571 84.9167 140.677 83.8409 141.419 82.5227C142.177 81.2045 142.556 79.8182 142.556 78.3636V73.4545C142.328 73.7273 141.828 73.9773 141.056 74.2045C140.298 74.4167 139.419 74.6061 138.419 74.7727C137.434 74.9242 136.472 75.0606 135.533 75.1818C134.609 75.2879 133.859 75.3788 133.283 75.4545C131.889 75.6364 130.586 75.9318 129.374 76.3409C128.177 76.7348 127.207 77.3333 126.465 78.1364C125.737 78.9242 125.374 80 125.374 81.3636C125.374 83.2273 126.063 84.6364 127.442 85.5909C128.836 86.5303 130.601 87 132.737 87ZM167.691 91.7273C164.782 91.7273 162.214 90.9924 159.986 89.5227C157.759 88.0379 156.017 85.947 154.759 83.25C153.502 80.5379 152.873 77.3333 152.873 73.6364C152.873 69.9697 153.502 66.7879 154.759 64.0909C156.017 61.3939 157.767 59.3106 160.009 57.8409C162.252 56.3712 164.842 55.6364 167.782 55.6364C170.055 55.6364 171.85 56.0152 173.168 56.7727C174.502 57.5152 175.517 58.3636 176.214 59.3182C176.926 60.2576 177.479 61.0303 177.873 61.6364H178.327V44.4545H183.691V91H178.509V85.6364H177.873C177.479 86.2727 176.918 87.0758 176.191 88.0455C175.464 89 174.426 89.8561 173.077 90.6136C171.729 91.3561 169.933 91.7273 167.691 91.7273ZM168.418 86.9091C170.57 86.9091 172.388 86.3485 173.873 85.2273C175.358 84.0909 176.486 82.5227 177.259 80.5227C178.032 78.5076 178.418 76.1818 178.418 73.5455C178.418 70.9394 178.039 68.6591 177.282 66.7045C176.524 64.7348 175.403 63.2045 173.918 62.1136C172.433 61.0076 170.6 60.4545 168.418 60.4545C166.145 60.4545 164.252 61.0379 162.736 62.2045C161.236 63.3561 160.108 64.9242 159.35 66.9091C158.608 68.8788 158.236 71.0909 158.236 73.5455C158.236 76.0303 158.615 78.2879 159.373 80.3182C160.145 82.3333 161.282 83.9394 162.782 85.1364C164.297 86.3182 166.176 86.9091 168.418 86.9091ZM205.695 91.7273C202.332 91.7273 199.43 90.9848 196.991 89.5C194.567 88 192.695 85.9091 191.377 83.2273C190.074 80.5303 189.423 77.3939 189.423 73.8182C189.423 70.2424 190.074 67.0909 191.377 64.3636C192.695 61.6212 194.529 59.4848 196.877 57.9545C199.241 56.4091 201.998 55.6364 205.15 55.6364C206.968 55.6364 208.764 55.9394 210.536 56.5455C212.309 57.1515 213.923 58.1364 215.377 59.5C216.832 60.8485 217.991 62.6364 218.855 64.8636C219.718 67.0909 220.15 69.8333 220.15 73.0909V75.3636H193.241V70.7273H214.695C214.695 68.7576 214.302 67 213.514 65.4545C212.741 63.9091 211.635 62.6894 210.195 61.7955C208.771 60.9015 207.089 60.4545 205.15 60.4545C203.014 60.4545 201.165 60.9848 199.605 62.0455C198.059 63.0909 196.87 64.4545 196.036 66.1364C195.203 67.8182 194.786 69.6212 194.786 71.5455V74.6364C194.786 77.2727 195.241 79.5076 196.15 81.3409C197.074 83.1591 198.355 84.5455 199.991 85.5C201.627 86.4394 203.529 86.9091 205.695 86.9091C207.105 86.9091 208.377 86.7121 209.514 86.3182C210.665 85.9091 211.658 85.303 212.491 84.5C213.324 83.6818 213.968 82.6667 214.423 81.4545L219.605 82.9091C219.059 84.6667 218.142 86.2121 216.855 87.5455C215.567 88.8636 213.976 89.8939 212.082 90.6364C210.188 91.3636 208.059 91.7273 205.695 91.7273ZM247.818 91L237.182 56.0909H242.818L250.364 82.8182H250.727L258.182 56.0909H263.909L271.273 82.7273H271.636L279.182 56.0909H284.818L274.182 91H268.909L261.273 64.1818H260.727L253.091 91H247.818ZM288.709 91V56.0909H294.073V91H288.709ZM291.436 50.2727C290.391 50.2727 289.489 49.9167 288.732 49.2045C287.989 48.4924 287.618 47.6364 287.618 46.6364C287.618 45.6364 287.989 44.7803 288.732 44.0682C289.489 43.3561 290.391 43 291.436 43C292.482 43 293.376 43.3561 294.118 44.0682C294.876 44.7803 295.255 45.6364 295.255 46.6364C295.255 47.6364 294.876 48.4924 294.118 49.2045C293.376 49.9167 292.482 50.2727 291.436 50.2727ZM315.878 56.0909V60.6364H297.788V56.0909H315.878ZM303.06 47.7273H308.424V81C308.424 82.5152 308.644 83.6515 309.083 84.4091C309.538 85.1515 310.113 85.6515 310.81 85.9091C311.522 86.1515 312.272 86.2727 313.06 86.2727C313.651 86.2727 314.136 86.2424 314.515 86.1818C314.894 86.1061 315.197 86.0455 315.424 86L316.515 90.8182C316.151 90.9545 315.644 91.0909 314.992 91.2273C314.341 91.3788 313.515 91.4545 312.515 91.4545C311 91.4545 309.515 91.1288 308.06 90.4773C306.621 89.8258 305.424 88.8333 304.469 87.5C303.53 86.1667 303.06 84.4848 303.06 82.4545V47.7273ZM326.86 70V91H321.497V44.4545H326.86V61.5455H327.315C328.133 59.7424 329.36 58.3106 330.997 57.25C332.648 56.1742 334.845 55.6364 337.587 55.6364C339.966 55.6364 342.05 56.1136 343.837 57.0682C345.625 58.0076 347.012 59.4545 347.997 61.4091C348.997 63.3485 349.497 65.8182 349.497 68.8182V91H344.133V69.1818C344.133 66.4091 343.413 64.2652 341.974 62.75C340.55 61.2197 338.572 60.4545 336.042 60.4545C334.284 60.4545 332.709 60.8258 331.315 61.5682C329.936 62.3106 328.845 63.3939 328.042 64.8182C327.254 66.2424 326.86 67.9697 326.86 70Z" fill="white"/>
<rect width="42.4276" height="42.077" transform="matrix(-0.702428 0.711755 0.711755 0.702428 424.887 24)" fill="white"/>
<rect width="20.9519" height="20.7787" transform="matrix(-0.702428 0.711755 0.711755 0.702428 455.206 53.9209)" fill="white"/>
<rect width="20.9519" height="20.7787" transform="matrix(-0.702428 0.711755 0.711755 0.702428 394.717 54.5709)" fill="white"/>
<rect width="20.9519" height="20.7787" transform="matrix(-0.702428 0.711755 0.711755 0.702428 425.035 84.4918)" fill="white"/>
<rect width="20.9519" height="20.7787" transform="matrix(-0.702428 0.711755 0.711755 0.702428 424.961 54.2459)" fill="white"/>
<path d="M487.593 42.0909H496.915L513.122 81.6648H513.719L529.926 42.0909H539.248V93H531.94V56.1605H531.467L516.453 92.9254H510.388L495.374 56.1357H494.901V93H487.593V42.0909ZM557.43 93.8452C555.011 93.8452 552.823 93.3977 550.868 92.5028C548.912 91.5914 547.363 90.2739 546.219 88.5504C545.092 86.8269 544.529 84.714 544.529 82.2116C544.529 80.0573 544.943 78.2841 545.772 76.892C546.6 75.5 547.719 74.398 549.128 73.5859C550.536 72.7739 552.111 72.1607 553.851 71.7464C555.591 71.3321 557.364 71.0173 559.17 70.8018C561.457 70.5367 563.313 70.3213 564.738 70.1555C566.164 69.9732 567.199 69.6832 567.846 69.2855C568.492 68.8878 568.815 68.2415 568.815 67.3466V67.1726C568.815 65.0017 568.202 63.3196 566.976 62.1264C565.766 60.9332 563.96 60.3366 561.557 60.3366C559.054 60.3366 557.082 60.8918 555.64 62.0021C554.215 63.0959 553.229 64.3139 552.682 65.6562L545.697 64.0653C546.526 61.7453 547.736 59.8726 549.327 58.4474C550.934 57.0057 552.782 55.9616 554.87 55.3153C556.958 54.6525 559.154 54.321 561.457 54.321C562.982 54.321 564.598 54.5033 566.305 54.8679C568.028 55.2159 569.635 55.8622 571.127 56.8068C572.635 57.7514 573.87 59.102 574.831 60.8587C575.792 62.5987 576.273 64.8608 576.273 67.6449V93H569.014V87.7798H568.716C568.235 88.741 567.514 89.6856 566.553 90.6136C565.592 91.5417 564.357 92.3123 562.849 92.9254C561.341 93.5386 559.535 93.8452 557.43 93.8452ZM559.046 87.8793C561.101 87.8793 562.858 87.4732 564.316 86.6612C565.791 85.8492 566.909 84.7886 567.672 83.4794C568.451 82.1536 568.84 80.7367 568.84 79.2287V74.3068C568.575 74.572 568.061 74.8205 567.299 75.0526C566.553 75.268 565.7 75.4586 564.738 75.6243C563.777 75.7734 562.841 75.9143 561.93 76.0469C561.018 76.1629 560.256 76.2623 559.643 76.3452C558.201 76.5275 556.883 76.834 555.69 77.2649C554.514 77.6958 553.569 78.3172 552.856 79.1293C552.16 79.9247 551.812 80.9853 551.812 82.3111C551.812 84.1506 552.492 85.5426 553.851 86.4872C555.21 87.4152 556.941 87.8793 559.046 87.8793ZM598.755 93.7706C595.06 93.7706 591.878 92.9337 589.21 91.2599C586.558 89.5696 584.52 87.2412 583.095 84.2749C581.67 81.3085 580.957 77.9112 580.957 74.0831C580.957 70.2053 581.686 66.7831 583.145 63.8168C584.603 60.8338 586.658 58.5054 589.309 56.8317C591.961 55.1579 595.085 54.321 598.681 54.321C601.581 54.321 604.166 54.8596 606.436 55.9368C608.707 56.9974 610.538 58.4889 611.93 60.4112C613.339 62.3336 614.176 64.5791 614.441 67.1477H607.207C606.809 65.358 605.898 63.8168 604.473 62.5241C603.064 61.2315 601.175 60.5852 598.805 60.5852C596.734 60.5852 594.919 61.1321 593.361 62.2259C591.82 63.303 590.618 64.8442 589.757 66.8494C588.895 68.8381 588.464 71.1913 588.464 73.9091C588.464 76.6932 588.887 79.0961 589.732 81.1179C590.577 83.1397 591.77 84.7057 593.311 85.8161C594.869 86.9264 596.7 87.4815 598.805 87.4815C600.214 87.4815 601.49 87.2247 602.633 86.7109C603.793 86.1806 604.763 85.4266 605.542 84.4489C606.337 83.4711 606.892 82.2945 607.207 80.919H614.441C614.176 83.3883 613.372 85.5923 612.029 87.5312C610.687 89.4702 608.889 90.9948 606.635 92.1051C604.398 93.2154 601.771 93.7706 598.755 93.7706ZM618.889 93V54.8182H626.073V60.8835H626.471C627.167 58.8286 628.393 57.2128 630.15 56.0362C631.923 54.843 633.928 54.2464 636.165 54.2464C636.629 54.2464 637.176 54.263 637.806 54.2962C638.452 54.3293 638.958 54.3707 639.322 54.4205V61.5298C639.024 61.447 638.494 61.3558 637.731 61.2564C636.969 61.1404 636.207 61.0824 635.444 61.0824C633.688 61.0824 632.122 61.4553 630.746 62.201C629.387 62.9302 628.31 63.9493 627.515 65.2585C626.719 66.5511 626.322 68.026 626.322 69.6832V93H618.889ZM656.97 93.7706C653.391 93.7706 650.267 92.9503 647.599 91.3097C644.931 89.669 642.859 87.3738 641.384 84.424C639.909 81.4742 639.172 78.0272 639.172 74.0831C639.172 70.1224 639.909 66.6589 641.384 63.6925C642.859 60.7261 644.931 58.4226 647.599 56.782C650.267 55.1413 653.391 54.321 656.97 54.321C660.55 54.321 663.674 55.1413 666.342 56.782C669.01 58.4226 671.081 60.7261 672.556 63.6925C674.031 66.6589 674.768 70.1224 674.768 74.0831C674.768 78.0272 674.031 81.4742 672.556 84.424C671.081 87.3738 669.01 89.669 666.342 91.3097C663.674 92.9503 660.55 93.7706 656.97 93.7706ZM656.995 87.5312C659.315 87.5312 661.237 86.9181 662.762 85.6918C664.287 84.4654 665.414 82.8331 666.143 80.7947C666.888 78.7564 667.261 76.5109 667.261 74.0582C667.261 71.6222 666.888 69.3849 666.143 67.3466C665.414 65.2917 664.287 63.6428 662.762 62.3999C661.237 61.157 659.315 60.5355 656.995 60.5355C654.658 60.5355 652.719 61.157 651.178 62.3999C649.654 63.6428 648.518 65.2917 647.773 67.3466C647.044 69.3849 646.679 71.6222 646.679 74.0582C646.679 76.5109 647.044 78.7564 647.773 80.7947C648.518 82.8331 649.654 84.4654 651.178 85.6918C652.719 86.9181 654.658 87.5312 656.995 87.5312ZM708.176 64.1399L701.44 65.3331C701.158 64.4714 700.711 63.651 700.097 62.8722C699.501 62.0933 698.689 61.4553 697.661 60.9581C696.634 60.4609 695.35 60.2124 693.808 60.2124C691.704 60.2124 689.947 60.6847 688.539 61.6293C687.13 62.5573 686.426 63.7588 686.426 65.2337C686.426 66.5097 686.898 67.5372 687.843 68.3161C688.787 69.0949 690.312 69.733 692.416 70.2301L698.482 71.6222C701.995 72.4342 704.613 73.6854 706.337 75.3757C708.06 77.0661 708.922 79.2618 708.922 81.9631C708.922 84.25 708.259 86.2884 706.933 88.0781C705.624 89.8513 703.793 91.2434 701.44 92.2543C699.103 93.2652 696.394 93.7706 693.311 93.7706C689.036 93.7706 685.547 92.8591 682.846 91.0362C680.145 89.1967 678.488 86.5866 677.874 83.206L685.058 82.1122C685.506 83.9848 686.426 85.4018 687.818 86.3629C689.21 87.3075 691.024 87.7798 693.262 87.7798C695.698 87.7798 697.645 87.2744 699.103 86.2635C700.561 85.236 701.291 83.9848 701.291 82.5099C701.291 81.3168 700.843 80.3142 699.948 79.5021C699.07 78.6901 697.719 78.0769 695.896 77.6626L689.433 76.2457C685.87 75.4337 683.235 74.1411 681.529 72.3679C679.838 70.5947 678.993 68.3492 678.993 65.6314C678.993 63.3776 679.623 61.4055 680.882 59.7152C682.142 58.0249 683.882 56.7074 686.102 55.7628C688.323 54.8016 690.867 54.321 693.734 54.321C697.86 54.321 701.108 55.2159 703.478 57.0057C705.848 58.7789 707.414 61.157 708.176 64.1399ZM729.677 93.7706C725.982 93.7706 722.8 92.9337 720.132 91.2599C717.48 89.5696 715.442 87.2412 714.017 84.2749C712.592 81.3085 711.879 77.9112 711.879 74.0831C711.879 70.2053 712.608 66.7831 714.066 63.8168C715.525 60.8338 717.58 58.5054 720.231 56.8317C722.883 55.1579 726.007 54.321 729.603 54.321C732.503 54.321 735.088 54.8596 737.358 55.9368C739.629 56.9974 741.46 58.4889 742.852 60.4112C744.261 62.3336 745.097 64.5791 745.363 67.1477H738.129C737.731 65.358 736.82 63.8168 735.395 62.5241C733.986 61.2315 732.097 60.5852 729.727 60.5852C727.655 60.5852 725.841 61.1321 724.283 62.2259C722.742 63.303 721.54 64.8442 720.679 66.8494C719.817 68.8381 719.386 71.1913 719.386 73.9091C719.386 76.6932 719.809 79.0961 720.654 81.1179C721.499 83.1397 722.692 84.7057 724.233 85.8161C725.791 86.9264 727.622 87.4815 729.727 87.4815C731.136 87.4815 732.412 87.2247 733.555 86.7109C734.715 86.1806 735.685 85.4266 736.463 84.4489C737.259 83.4711 737.814 82.2945 738.129 80.919H745.363C745.097 83.3883 744.294 85.5923 742.951 87.5312C741.609 89.4702 739.811 90.9948 737.557 92.1051C735.32 93.2154 732.693 93.7706 729.677 93.7706ZM765.894 93.7706C762.314 93.7706 759.191 92.9503 756.523 91.3097C753.854 89.669 751.783 87.3738 750.308 84.424C748.833 81.4742 748.096 78.0272 748.096 74.0831C748.096 70.1224 748.833 66.6589 750.308 63.6925C751.783 60.7261 753.854 58.4226 756.523 56.782C759.191 55.1413 762.314 54.321 765.894 54.321C769.474 54.321 772.597 55.1413 775.265 56.782C777.934 58.4226 780.005 60.7261 781.48 63.6925C782.955 66.6589 783.692 70.1224 783.692 74.0831C783.692 78.0272 782.955 81.4742 781.48 84.424C780.005 87.3738 777.934 89.669 775.265 91.3097C772.597 92.9503 769.474 93.7706 765.894 93.7706ZM765.919 87.5312C768.239 87.5312 770.161 86.9181 771.686 85.6918C773.211 84.4654 774.337 82.8331 775.067 80.7947C775.812 78.7564 776.185 76.5109 776.185 74.0582C776.185 71.6222 775.812 69.3849 775.067 67.3466C774.337 65.2917 773.211 63.6428 771.686 62.3999C770.161 61.157 768.239 60.5355 765.919 60.5355C763.582 60.5355 761.643 61.157 760.102 62.3999C758.577 63.6428 757.442 65.2917 756.697 67.3466C755.967 69.3849 755.603 71.6222 755.603 74.0582C755.603 76.5109 755.967 78.7564 756.697 80.7947C757.442 82.8331 758.577 84.4654 760.102 85.6918C761.643 86.9181 763.582 87.5312 765.919 87.5312ZM788.489 107.318V54.8182H795.747V61.0078H796.369C796.799 60.2124 797.421 59.2926 798.233 58.2486C799.045 57.2045 800.172 56.2931 801.614 55.5142C803.055 54.7188 804.961 54.321 807.331 54.321C810.413 54.321 813.164 55.0999 815.584 56.6577C818.003 58.2154 819.901 60.4609 821.276 63.3942C822.668 66.3274 823.364 69.8572 823.364 73.9837C823.364 78.1101 822.677 81.6482 821.301 84.598C819.926 87.5312 818.036 89.7933 815.634 91.3842C813.231 92.9586 810.488 93.7457 807.406 93.7457C805.085 93.7457 803.188 93.3563 801.713 92.5774C800.255 91.7985 799.111 90.8871 798.283 89.843C797.454 88.799 796.816 87.871 796.369 87.0589H795.921V107.318H788.489ZM795.772 73.9091C795.772 76.5937 796.161 78.947 796.94 80.9688C797.719 82.9905 798.846 84.5732 800.321 85.7166C801.796 86.8435 803.602 87.407 805.74 87.407C807.961 87.407 809.817 86.8187 811.308 85.642C812.8 84.4489 813.927 82.8331 814.689 80.7947C815.468 78.7564 815.857 76.4612 815.857 73.9091C815.857 71.3902 815.476 69.1281 814.714 67.1229C813.968 65.1177 812.841 63.535 811.333 62.375C809.842 61.215 807.977 60.6349 805.74 60.6349C803.586 60.6349 801.763 61.1901 800.271 62.3004C798.796 63.4107 797.678 64.9602 796.915 66.9489C796.153 68.9375 795.772 71.2576 795.772 73.9091ZM844.648 93.7706C840.886 93.7706 837.646 92.9669 834.928 91.3594C832.227 89.7353 830.139 87.4567 828.664 84.5234C827.206 81.5736 826.477 78.1184 826.477 74.1577C826.477 70.2467 827.206 66.7997 828.664 63.8168C830.139 60.8338 832.194 58.5054 834.829 56.8317C837.48 55.1579 840.579 54.321 844.126 54.321C846.28 54.321 848.368 54.6773 850.39 55.3899C852.412 56.1025 854.226 57.2211 855.834 58.7457C857.441 60.2704 858.709 62.2507 859.637 64.6868C860.565 67.1063 861.029 70.0478 861.029 73.5114V76.1463H830.678V70.5781H853.746C853.746 68.6226 853.348 66.8909 852.553 65.3828C851.757 63.8582 850.638 62.6567 849.197 61.7784C847.772 60.9001 846.098 60.4609 844.175 60.4609C842.087 60.4609 840.264 60.9747 838.707 62.0021C837.165 63.013 835.972 64.3388 835.127 65.9794C834.299 67.6035 833.884 69.3684 833.884 71.2741V75.6243C833.884 78.1764 834.332 80.3473 835.227 82.1371C836.138 83.9268 837.406 85.294 839.03 86.2386C840.654 87.1667 842.551 87.6307 844.722 87.6307C846.131 87.6307 847.415 87.4318 848.575 87.0341C849.735 86.6198 850.738 86.0066 851.583 85.1946C852.428 84.3826 853.075 83.38 853.522 82.1868L860.557 83.4545C859.993 85.526 858.982 87.3407 857.524 88.8984C856.082 90.4396 854.268 91.6411 852.08 92.5028C849.909 93.348 847.432 93.7706 844.648 93.7706Z" fill="white"/>
</svg>
