<svg width="20" height="21" viewBox="0 0 20 21" fill="none" xmlns="http://www.w3.org/2000/svg">
<path d="M9.06289 0.539769C7.1747 0.715216 5.37543 1.42558 3.87555 2.58775C2.37566 3.74993 1.23718 5.31588 0.593276 7.10241C-0.050627 8.88894 -0.173327 10.8222 0.239529 12.676C0.652385 14.5298 1.58373 16.2276 2.92461 17.5706C4.26549 18.9137 5.96047 19.8466 7.81127 20.2601C9.66208 20.6736 11.5922 20.5507 13.3758 19.9058C15.1594 19.2608 16.7228 18.1205 17.8831 16.6181C19.0434 15.1158 19.7526 13.3136 19.9278 11.4223C20.0581 9.96047 19.8666 8.48776 19.3667 7.10812C18.8667 5.72849 18.0706 4.47556 17.0345 3.43774C15.9984 2.39993 14.7475 1.60252 13.3701 1.10179C11.9927 0.601054 10.5224 0.409203 9.06289 0.539769ZM15.3464 8.25283L9.42901 14.118C9.25146 14.2911 9.01348 14.3879 8.76571 14.3879C8.51794 14.3879 8.27995 14.2911 8.1024 14.118L4.61471 10.7818C4.43248 10.6065 4.32723 10.3659 4.3221 10.1129C4.31697 9.85995 4.41239 9.61529 4.58737 9.43277C4.76234 9.25024 5.00254 9.14482 5.25511 9.13968C5.50769 9.13455 5.75196 9.23012 5.93418 9.40538L8.74907 12.1105L14.0175 6.89786C14.1983 6.72766 14.4383 6.63499 14.6864 6.63961C14.9345 6.64424 15.1709 6.7458 15.3453 6.92262C15.5197 7.09944 15.6181 7.33751 15.6197 7.58603C15.6212 7.83456 15.5257 8.07384 15.3536 8.25283H15.3464Z" fill="#464646"/>
</svg>
