<svg width="62" height="56" viewBox="0 0 62 56" fill="none" xmlns="http://www.w3.org/2000/svg">
<path d="M51 0H11C4.93 0 0 4.93 0 11V15C0 16.65 1.35 18 3 18C4.65 18 6 16.65 6 15V11C6 8.24 8.24 6 11 6H51C53.76 6 56 8.24 56 11V45C56 47.76 53.76 50 51 50H41C39.35 50 38 51.35 38 53C38 54.65 39.35 56 41 56H51C57.07 56 62 51.07 62 45V11C62 4.93 57.07 0 51 0Z" fill="black"/>
<path d="M0 53C0 53.8 0.309999 54.55 0.879999 55.12C2.01 56.25 3.99 56.25 5.12 55.12L22 38.24V51C22 52.65 23.35 54 25 54C26.65 54 28 52.65 28 51V37C28 32.04 23.96 28 19 28H5C3.35 28 2 29.35 2 31C2 32.65 3.35 34 5 34H17.76L0.879999 50.88C0.309999 51.45 0 52.2 0 53Z" fill="black"/>
</svg>
