<svg width="172" height="181" viewBox="0 0 172 181" fill="none" xmlns="http://www.w3.org/2000/svg">
<rect x="57.5247" y="28.2847" width="40" height="81.2491" transform="rotate(44.9303 57.5247 28.2847)" fill="white" fill-opacity="0.6"/>
<rect x="85.4557" width="121.202" height="40" transform="rotate(44.9303 85.4557 0)" fill="white" fill-opacity="0.6"/>
<rect x="85.7397" y="114.108" width="40" height="40" transform="rotate(44.9303 85.7397 114.108)" fill="white" fill-opacity="0.6"/>
<rect width="80.3361" height="79.6721" transform="matrix(-0.702428 0.711755 0.711755 0.702428 85.2438 10.4307)" fill="#222222"/>
<rect width="39.6721" height="39.3443" transform="matrix(-0.702428 0.711755 0.711755 0.702428 142.651 67.0855)" fill="#353535"/>
<rect width="39.6721" height="39.3443" transform="matrix(-0.702428 0.711755 0.711755 0.702428 28.1168 68.3163)" fill="#353535"/>
<rect width="39.6721" height="39.3443" transform="matrix(-0.702428 0.711755 0.711755 0.702428 85.524 124.971)" fill="#222222"/>
<rect width="39.6721" height="39.3443" transform="matrix(-0.702428 0.711755 0.711755 0.702428 85.3839 67.7009)" fill="#353535"/>
</svg>
