<svg width="767" height="171" viewBox="0 0 767 171" fill="none" xmlns="http://www.w3.org/2000/svg">
<rect width="80.3361" height="79.6721" transform="matrix(-0.702428 0.711755 0.711755 0.702428 84.9937 0)" fill="white"/>
<rect width="39.6721" height="39.3443" transform="matrix(-0.702428 0.711755 0.711755 0.702428 142.401 56.6548)" fill="white"/>
<rect width="39.6721" height="39.3443" transform="matrix(-0.702428 0.711755 0.711755 0.702428 27.8668 57.8855)" fill="white"/>
<rect width="39.6721" height="39.3443" transform="matrix(-0.702428 0.711755 0.711755 0.702428 85.2739 114.54)" fill="white"/>
<rect width="39.6721" height="39.3443" transform="matrix(-0.702428 0.711755 0.711755 0.702428 85.1338 57.2702)" fill="white"/>
<path d="M236.7 47.9845H247.211L271.927 108.354H272.779L297.495 47.9845H308.006V120.712H299.768V65.4561H299.057L276.33 120.712H268.376L245.648 65.4561H244.938V120.712H236.7V47.9845ZM335.579 121.99C332.123 121.99 328.986 121.339 326.169 120.037C323.351 118.711 321.114 116.805 319.457 114.32C317.8 111.81 316.971 108.78 316.971 105.229C316.971 102.104 317.587 99.5706 318.818 97.6294C320.049 95.6644 321.694 94.1256 323.754 93.0129C325.814 91.9002 328.086 91.0716 330.572 90.5271C333.082 89.9589 335.603 89.5091 338.136 89.1776C341.45 88.7515 344.137 88.4319 346.197 88.2188C348.28 87.9821 349.796 87.5915 350.742 87.047C351.713 86.5025 352.198 85.5555 352.198 84.2061V83.922C352.198 80.4182 351.24 77.6956 349.322 75.7544C347.428 73.8131 344.552 72.8424 340.693 72.8424C336.692 72.8424 333.555 73.7184 331.282 75.4703C329.01 77.2222 327.412 79.0924 326.488 81.0811L318.534 78.2401C319.954 74.9258 321.848 72.3453 324.215 70.4987C326.607 68.6284 329.211 67.3263 332.028 66.5924C334.869 65.8348 337.662 65.4561 340.409 65.4561C342.161 65.4561 344.173 65.6691 346.446 66.0953C348.742 66.4977 350.956 67.3382 353.086 68.6166C355.241 69.895 357.028 71.8244 358.448 74.4049C359.869 76.9854 360.579 80.4419 360.579 84.7742V120.712H352.198V113.325H351.772C351.204 114.509 350.257 115.776 348.931 117.125C347.606 118.475 345.842 119.623 343.64 120.57C341.439 121.517 338.751 121.99 335.579 121.99ZM336.858 114.462C340.172 114.462 342.965 113.811 345.238 112.509C347.535 111.207 349.263 109.526 350.423 107.466C351.607 105.406 352.198 103.24 352.198 100.967V93.297C351.843 93.7231 351.062 94.1137 349.855 94.4688C348.671 94.8003 347.298 95.0962 345.735 95.3566C344.197 95.5934 342.693 95.8064 341.225 95.9958C339.781 96.1615 338.609 96.3036 337.71 96.422C335.532 96.7061 333.496 97.1677 331.602 97.8069C329.732 98.4224 328.216 99.3576 327.056 100.612C325.92 101.843 325.352 103.524 325.352 105.655C325.352 108.567 326.429 110.769 328.583 112.26C330.761 113.728 333.519 114.462 336.858 114.462ZM393.035 121.848C387.921 121.848 383.518 120.641 379.825 118.226C376.131 115.811 373.29 112.485 371.302 108.247C369.313 104.01 368.319 99.1682 368.319 93.7231C368.319 88.1833 369.337 83.2946 371.373 79.0569C373.432 74.7955 376.297 71.4693 379.967 69.0782C383.66 66.6634 387.968 65.4561 392.893 65.4561C396.728 65.4561 400.184 66.1663 403.262 67.5867C406.34 69.0072 408.861 70.9958 410.826 73.5526C412.791 76.1095 414.01 79.0924 414.484 82.5015H406.103C405.464 80.0157 404.043 77.814 401.842 75.8964C399.664 73.9551 396.728 72.9845 393.035 72.9845C389.768 72.9845 386.903 73.8367 384.441 75.5413C382.003 77.2222 380.097 79.6014 378.724 82.6791C377.374 85.733 376.7 89.3197 376.7 93.439C376.7 97.653 377.362 101.323 378.688 104.448C380.038 107.573 381.932 109.999 384.37 111.727C386.832 113.456 389.72 114.32 393.035 114.32C395.213 114.32 397.19 113.941 398.965 113.183C400.741 112.426 402.244 111.337 403.475 109.916C404.706 108.496 405.582 106.791 406.103 104.803H414.484C414.01 108.022 412.838 110.922 410.968 113.503C409.121 116.06 406.671 118.096 403.617 119.611C400.587 121.102 397.059 121.848 393.035 121.848ZM421.735 120.712V66.1663H429.832V74.4049H430.4C431.394 71.7061 433.193 69.5162 435.798 67.8353C438.402 66.1544 441.337 65.314 444.604 65.314C445.22 65.314 445.989 65.3258 446.913 65.3495C447.836 65.3732 448.534 65.4087 449.008 65.4561V73.9788C448.724 73.9078 448.073 73.8012 447.055 73.6592C446.06 73.4935 445.007 73.4106 443.894 73.4106C441.243 73.4106 438.875 73.9669 436.792 75.0796C434.732 76.1687 433.099 77.6838 431.891 79.6251C430.708 81.5427 430.116 83.7326 430.116 86.1947V120.712H421.735ZM474.441 121.848C469.517 121.848 465.196 120.676 461.479 118.332C457.786 115.989 454.898 112.71 452.815 108.496C450.755 104.282 449.725 99.3576 449.725 93.7231C449.725 88.0413 450.755 83.0815 452.815 78.8438C454.898 74.6061 457.786 71.3154 461.479 68.9717C465.196 66.6279 469.517 65.4561 474.441 65.4561C479.365 65.4561 483.674 66.6279 487.367 68.9717C491.084 71.3154 493.972 74.6061 496.032 78.8438C498.115 83.0815 499.157 88.0413 499.157 93.7231C499.157 99.3576 498.115 104.282 496.032 108.496C493.972 112.71 491.084 115.989 487.367 118.332C483.674 120.676 479.365 121.848 474.441 121.848ZM474.441 114.32C478.182 114.32 481.259 113.361 483.674 111.443C486.089 109.526 487.876 107.004 489.036 103.879C490.196 100.754 490.776 97.3689 490.776 93.7231C490.776 90.0773 490.196 86.68 489.036 83.5313C487.876 80.3827 486.089 77.8377 483.674 75.8964C481.259 73.9551 478.182 72.9845 474.441 72.9845C470.7 72.9845 467.623 73.9551 465.208 75.8964C462.793 77.8377 461.006 80.3827 459.846 83.5313C458.686 86.68 458.106 90.0773 458.106 93.7231C458.106 97.3689 458.686 100.754 459.846 103.879C461.006 107.004 462.793 109.526 465.208 111.443C467.623 113.361 470.7 114.32 474.441 114.32ZM545.586 78.3822L538.058 80.5129C537.584 79.2581 536.886 78.0389 535.963 76.8552C535.063 75.6478 533.832 74.6535 532.269 73.8722C530.707 73.091 528.707 72.7004 526.268 72.7004C522.93 72.7004 520.148 73.4698 517.923 75.0086C515.721 76.5238 514.62 78.4532 514.62 80.797C514.62 82.8803 515.378 84.5257 516.893 85.733C518.408 86.9404 520.776 87.9466 523.995 88.7515L532.092 90.7401C536.969 91.9239 540.603 93.7349 542.994 96.1734C545.385 98.5882 546.581 101.701 546.581 105.513C546.581 108.638 545.681 111.431 543.882 113.894C542.106 116.356 539.62 118.297 536.424 119.717C533.228 121.138 529.511 121.848 525.274 121.848C519.71 121.848 515.106 120.641 511.46 118.226C507.814 115.811 505.506 112.284 504.535 107.644L512.49 105.655C513.247 108.591 514.68 110.792 516.787 112.26C518.917 113.728 521.699 114.462 525.132 114.462C529.038 114.462 532.139 113.633 534.436 111.976C536.756 110.295 537.916 108.283 537.916 105.939C537.916 104.045 537.253 102.459 535.927 101.18C534.601 99.8784 532.565 98.9078 529.819 98.2686L520.728 96.1379C515.733 94.9542 512.064 93.1194 509.72 90.6336C507.4 88.1241 506.24 84.9873 506.24 81.2231C506.24 78.1454 507.104 75.4229 508.832 73.0555C510.584 70.6881 512.963 68.8296 515.97 67.4802C519 66.1308 522.433 65.4561 526.268 65.4561C531.666 65.4561 535.903 66.6398 538.981 69.0072C542.082 71.3746 544.284 74.4996 545.586 78.3822ZM576.355 121.848C571.241 121.848 566.838 120.641 563.145 118.226C559.452 115.811 556.611 112.485 554.622 108.247C552.633 104.01 551.639 99.1682 551.639 93.7231C551.639 88.1833 552.657 83.2946 554.693 79.0569C556.753 74.7955 559.617 71.4693 563.287 69.0782C566.98 66.6634 571.289 65.4561 576.213 65.4561C580.048 65.4561 583.505 66.1663 586.582 67.5867C589.66 69.0072 592.181 70.9958 594.146 73.5526C596.111 76.1095 597.33 79.0924 597.804 82.5015H589.423C588.784 80.0157 587.364 77.814 585.162 75.8964C582.984 73.9551 580.048 72.9845 576.355 72.9845C573.088 72.9845 570.223 73.8367 567.761 75.5413C565.323 77.2222 563.417 79.6014 562.044 82.6791C560.695 85.733 560.02 89.3197 560.02 93.439C560.02 97.653 560.683 101.323 562.008 104.448C563.358 107.573 565.252 109.999 567.69 111.727C570.152 113.456 573.041 114.32 576.355 114.32C578.533 114.32 580.51 113.941 582.285 113.183C584.061 112.426 585.564 111.337 586.795 109.916C588.026 108.496 588.902 106.791 589.423 104.803H597.804C597.33 108.022 596.159 110.922 594.288 113.503C592.442 116.06 589.991 118.096 586.937 119.611C583.907 121.102 580.38 121.848 576.355 121.848ZM627.214 121.848C622.29 121.848 617.97 120.676 614.253 118.332C610.56 115.989 607.671 112.71 605.588 108.496C603.528 104.282 602.499 99.3576 602.499 93.7231C602.499 88.0413 603.528 83.0815 605.588 78.8438C607.671 74.6061 610.56 71.3154 614.253 68.9717C617.97 66.6279 622.29 65.4561 627.214 65.4561C632.139 65.4561 636.447 66.6279 640.141 68.9717C643.857 71.3154 646.746 74.6061 648.805 78.8438C650.889 83.0815 651.93 88.0413 651.93 93.7231C651.93 99.3576 650.889 104.282 648.805 108.496C646.746 112.71 643.857 115.989 640.141 118.332C636.447 120.676 632.139 121.848 627.214 121.848ZM627.214 114.32C630.955 114.32 634.033 113.361 636.447 111.443C638.862 109.526 640.65 107.004 641.81 103.879C642.97 100.754 643.55 97.3689 643.55 93.7231C643.55 90.0773 642.97 86.68 641.81 83.5313C640.65 80.3827 638.862 77.8377 636.447 75.8964C634.033 73.9551 630.955 72.9845 627.214 72.9845C623.474 72.9845 620.396 73.9551 617.981 75.8964C615.567 77.8377 613.779 80.3827 612.619 83.5313C611.459 86.68 610.879 90.0773 610.879 93.7231C610.879 97.3689 611.459 100.754 612.619 103.879C613.779 107.004 615.567 109.526 617.981 111.443C620.396 113.361 623.474 114.32 627.214 114.32ZM659.723 141.166V66.1663H667.82V74.8311H668.814C669.43 73.8841 670.282 72.6767 671.371 71.2089C672.484 69.7174 674.07 68.3917 676.13 67.2316C678.213 66.0479 681.03 65.4561 684.581 65.4561C689.174 65.4561 693.222 66.6043 696.726 68.9007C700.23 71.1971 702.964 74.4523 704.929 78.6663C706.894 82.8803 707.877 87.8519 707.877 93.5811C707.877 99.3576 706.894 104.365 704.929 108.602C702.964 112.816 700.242 116.083 696.762 118.403C693.282 120.7 689.269 121.848 684.723 121.848C681.22 121.848 678.414 121.268 676.307 120.108C674.2 118.924 672.578 117.587 671.442 116.095C670.306 114.58 669.43 113.325 668.814 112.331H668.104V141.166H659.723ZM667.962 93.439C667.962 97.5583 668.566 101.192 669.773 104.341C670.98 107.466 672.744 109.916 675.064 111.692C677.384 113.444 680.225 114.32 683.587 114.32C687.091 114.32 690.015 113.396 692.358 111.55C694.726 109.68 696.501 107.17 697.685 104.021C698.892 100.849 699.496 97.3216 699.496 93.439C699.496 89.6038 698.904 86.1473 697.72 83.0697C696.56 79.9684 694.797 77.5181 692.429 75.7188C690.086 73.8959 687.138 72.9845 683.587 72.9845C680.178 72.9845 677.313 73.8486 674.993 75.5768C672.673 77.2813 670.921 79.6724 669.738 82.7501C668.554 85.8041 667.962 89.367 667.962 93.439ZM738.53 121.848C733.274 121.848 728.741 120.688 724.929 118.368C721.141 116.024 718.218 112.757 716.158 108.567C714.122 104.353 713.104 99.4523 713.104 93.8651C713.104 88.278 714.122 83.3538 716.158 79.0924C718.218 74.8074 721.082 71.4693 724.752 69.0782C728.445 66.6634 732.754 65.4561 737.678 65.4561C740.519 65.4561 743.324 65.9295 746.094 66.8765C748.864 67.8235 751.385 69.3623 753.658 71.493C755.931 73.6 757.742 76.3936 759.091 79.8737C760.441 83.3538 761.115 87.6388 761.115 92.7288V96.2799H719.07V89.0356H752.593C752.593 85.9579 751.977 83.2117 750.746 80.797C749.539 78.3822 747.81 76.4764 745.561 75.0796C743.336 73.6829 740.708 72.9845 737.678 72.9845C734.34 72.9845 731.452 73.8131 729.013 75.4703C726.598 77.1038 724.74 79.2345 723.438 81.8623C722.136 84.4901 721.485 87.3074 721.485 90.314V95.1436C721.485 99.2629 722.195 102.755 723.615 105.619C725.059 108.46 727.06 110.627 729.617 112.118C732.174 113.586 735.145 114.32 738.53 114.32C740.732 114.32 742.72 114.012 744.496 113.396C746.295 112.757 747.846 111.81 749.148 110.555C750.45 109.277 751.456 107.691 752.166 105.797L760.263 108.07C759.411 110.816 757.979 113.231 755.966 115.314C753.954 117.374 751.468 118.984 748.509 120.144C745.55 121.28 742.223 121.848 738.53 121.848Z" fill="white"/>
</svg>
