<svg width="768" height="181" viewBox="0 0 768 181" fill="none" xmlns="http://www.w3.org/2000/svg">
<rect x="57.5247" y="28.2847" width="40" height="81.2491" transform="rotate(44.9303 57.5247 28.2847)" fill="white" fill-opacity="0.6"/>
<rect x="85.4557" width="121.202" height="40" transform="rotate(44.9303 85.4557 0)" fill="white" fill-opacity="0.6"/>
<rect x="85.7397" y="114.108" width="40" height="40" transform="rotate(44.9303 85.7397 114.108)" fill="white" fill-opacity="0.6"/>
<rect width="80.3361" height="79.6721" transform="matrix(-0.702428 0.711755 0.711755 0.702428 85.2438 10.4307)" fill="#222222"/>
<rect width="39.6721" height="39.3443" transform="matrix(-0.702428 0.711755 0.711755 0.702428 142.651 67.0855)" fill="#353535"/>
<rect width="39.6721" height="39.3443" transform="matrix(-0.702428 0.711755 0.711755 0.702428 28.1168 68.3163)" fill="#353535"/>
<rect width="39.6721" height="39.3443" transform="matrix(-0.702428 0.711755 0.711755 0.702428 85.524 124.971)" fill="#222222"/>
<rect width="39.6721" height="39.3443" transform="matrix(-0.702428 0.711755 0.711755 0.702428 85.3839 67.7009)" fill="#353535"/>
<path d="M236.95 58.4152H247.461L272.177 118.785H273.029L297.745 58.4152H308.256V131.142H300.018V75.8868H299.308L276.58 131.142H268.626L245.898 75.8868H245.188V131.142H236.95V58.4152ZM335.829 132.421C332.373 132.421 329.236 131.77 326.419 130.468C323.601 129.142 321.364 127.236 319.707 124.75C318.05 122.241 317.221 119.211 317.221 115.66C317.221 112.535 317.837 110.001 319.068 108.06C320.299 106.095 321.944 104.556 324.004 103.444C326.064 102.331 328.336 101.502 330.822 100.958C333.332 100.39 335.853 99.9398 338.386 99.6084C341.7 99.1822 344.387 98.8626 346.447 98.6496C348.53 98.4128 350.046 98.0222 350.993 97.4777C351.963 96.9332 352.449 95.9862 352.449 94.6368V94.3527C352.449 90.8489 351.49 88.1264 349.572 86.1851C347.678 84.2438 344.802 83.2731 340.943 83.2731C336.942 83.2731 333.805 84.1491 331.532 85.901C329.26 87.6529 327.662 89.5231 326.738 91.5118L318.784 88.6709C320.204 85.3565 322.098 82.776 324.466 80.9294C326.857 79.0591 329.461 77.757 332.278 77.0231C335.119 76.2656 337.913 75.8868 340.659 75.8868C342.411 75.8868 344.423 76.0998 346.696 76.526C348.992 76.9284 351.206 77.7689 353.336 79.0473C355.491 80.3257 357.278 82.2551 358.699 84.8356C360.119 87.4161 360.829 90.8726 360.829 95.205V131.142H352.449V123.756H352.022C351.454 124.94 350.507 126.206 349.181 127.556C347.856 128.905 346.092 130.053 343.89 131C341.689 131.947 339.002 132.421 335.829 132.421ZM337.108 124.892C340.422 124.892 343.216 124.241 345.488 122.939C347.785 121.637 349.513 119.956 350.673 117.897C351.857 115.837 352.449 113.671 352.449 111.398V103.728C352.093 104.154 351.312 104.544 350.105 104.9C348.921 105.231 347.548 105.527 345.985 105.787C344.447 106.024 342.943 106.237 341.476 106.427C340.031 106.592 338.86 106.734 337.96 106.853C335.782 107.137 333.746 107.598 331.852 108.238C329.982 108.853 328.467 109.788 327.306 111.043C326.17 112.274 325.602 113.955 325.602 116.086C325.602 118.998 326.679 121.199 328.833 122.691C331.011 124.159 333.77 124.892 337.108 124.892ZM393.285 132.279C388.171 132.279 383.768 131.071 380.075 128.657C376.381 126.242 373.54 122.916 371.552 118.678C369.563 114.44 368.569 109.599 368.569 104.154C368.569 98.614 369.587 93.7253 371.623 89.4876C373.683 85.2263 376.547 81.9 380.217 79.5089C383.91 77.0942 388.219 75.8868 393.143 75.8868C396.978 75.8868 400.434 76.597 403.512 78.0175C406.59 79.4379 409.111 81.4265 411.076 83.9834C413.041 86.5402 414.26 89.5231 414.734 92.9322H406.353C405.714 90.4464 404.293 88.2447 402.092 86.3271C399.914 84.3858 396.978 83.4152 393.285 83.4152C390.018 83.4152 387.153 84.2675 384.691 85.972C382.253 87.6529 380.347 90.0321 378.974 93.1098C377.624 96.1638 376.95 99.7504 376.95 103.87C376.95 108.084 377.612 111.753 378.938 114.878C380.288 118.003 382.182 120.43 384.62 122.158C387.082 123.886 389.97 124.75 393.285 124.75C395.463 124.75 397.44 124.372 399.215 123.614C400.991 122.856 402.494 121.767 403.725 120.347C404.956 118.927 405.832 117.222 406.353 115.233H414.734C414.26 118.453 413.088 121.353 411.218 123.934C409.371 126.49 406.921 128.526 403.867 130.042C400.837 131.533 397.309 132.279 393.285 132.279ZM421.985 131.142V76.597H430.082V84.8356H430.65C431.644 82.1368 433.443 79.9469 436.048 78.266C438.652 76.5852 441.587 75.7447 444.854 75.7447C445.47 75.7447 446.239 75.7566 447.163 75.7802C448.086 75.8039 448.784 75.8394 449.258 75.8868V84.4095C448.974 84.3385 448.323 84.2319 447.305 84.0899C446.31 83.9242 445.257 83.8413 444.144 83.8413C441.493 83.8413 439.125 84.3977 437.042 85.5104C434.982 86.5994 433.349 88.1145 432.141 90.0558C430.958 91.9734 430.366 94.1633 430.366 96.6254V131.142H421.985ZM474.691 132.279C469.767 132.279 465.446 131.107 461.729 128.763C458.036 126.419 455.148 123.141 453.065 118.927C451.005 114.713 449.975 109.788 449.975 104.154C449.975 98.472 451.005 93.5122 453.065 89.2746C455.148 85.0369 458.036 81.7461 461.729 79.4024C465.446 77.0586 469.767 75.8868 474.691 75.8868C479.615 75.8868 483.924 77.0586 487.617 79.4024C491.334 81.7461 494.222 85.0369 496.282 89.2746C498.365 93.5122 499.407 98.472 499.407 104.154C499.407 109.788 498.365 114.713 496.282 118.927C494.222 123.141 491.334 126.419 487.617 128.763C483.924 131.107 479.615 132.279 474.691 132.279ZM474.691 124.75C478.432 124.75 481.509 123.792 483.924 121.874C486.339 119.956 488.126 117.435 489.286 114.31C490.446 111.185 491.026 107.8 491.026 104.154C491.026 100.508 490.446 97.1107 489.286 93.9621C488.126 90.8134 486.339 88.2684 483.924 86.3271C481.509 84.3858 478.432 83.4152 474.691 83.4152C470.951 83.4152 467.873 84.3858 465.458 86.3271C463.043 88.2684 461.256 90.8134 460.096 93.9621C458.936 97.1107 458.356 100.508 458.356 104.154C458.356 107.8 458.936 111.185 460.096 114.31C461.256 117.435 463.043 119.956 465.458 121.874C467.873 123.792 470.951 124.75 474.691 124.75ZM545.836 88.8129L538.308 90.9436C537.834 89.6889 537.136 88.4696 536.213 87.2859C535.313 86.0785 534.082 85.0842 532.52 84.303C530.957 83.5217 528.957 83.1311 526.518 83.1311C523.18 83.1311 520.398 83.9005 518.173 85.4393C515.971 86.9545 514.87 88.8839 514.87 91.2277C514.87 93.311 515.628 94.9564 517.143 96.1638C518.658 97.3711 521.026 98.3773 524.245 99.1822L532.342 101.171C537.219 102.355 540.853 104.166 543.244 106.604C545.635 109.019 546.831 112.132 546.831 115.944C546.831 119.069 545.931 121.862 544.132 124.324C542.356 126.786 539.87 128.728 536.674 130.148C533.478 131.569 529.761 132.279 525.524 132.279C519.96 132.279 515.356 131.071 511.71 128.657C508.064 126.242 505.756 122.714 504.785 118.074L512.74 116.086C513.497 119.021 514.93 121.223 517.037 122.691C519.167 124.159 521.949 124.892 525.382 124.892C529.288 124.892 532.389 124.064 534.686 122.407C537.006 120.726 538.166 118.713 538.166 116.37C538.166 114.476 537.503 112.89 536.177 111.611C534.851 110.309 532.815 109.338 530.069 108.699L520.978 106.569C515.983 105.385 512.314 103.55 509.97 101.064C507.65 98.5549 506.49 95.418 506.49 91.6538C506.49 88.5762 507.354 85.8536 509.082 83.4862C510.834 81.1188 513.213 79.2604 516.22 77.9109C519.25 76.5615 522.683 75.8868 526.518 75.8868C531.916 75.8868 536.154 77.0705 539.231 79.4379C542.333 81.8053 544.534 84.9303 545.836 88.8129ZM576.605 132.279C571.491 132.279 567.088 131.071 563.395 128.657C559.702 126.242 556.861 122.916 554.872 118.678C552.884 114.44 551.889 109.599 551.889 104.154C551.889 98.614 552.907 93.7253 554.943 89.4876C557.003 85.2263 559.867 81.9 563.537 79.5089C567.23 77.0942 571.539 75.8868 576.463 75.8868C580.298 75.8868 583.755 76.597 586.832 78.0175C589.91 79.4379 592.431 81.4265 594.396 83.9834C596.361 86.5402 597.58 89.5231 598.054 92.9322H589.673C589.034 90.4464 587.614 88.2447 585.412 86.3271C583.234 84.3858 580.298 83.4152 576.605 83.4152C573.338 83.4152 570.473 84.2675 568.011 85.972C565.573 87.6529 563.667 90.0321 562.294 93.1098C560.945 96.1638 560.27 99.7504 560.27 103.87C560.27 108.084 560.933 111.753 562.259 114.878C563.608 118.003 565.502 120.43 567.94 122.158C570.402 123.886 573.291 124.75 576.605 124.75C578.783 124.75 580.76 124.372 582.536 123.614C584.311 122.856 585.814 121.767 587.045 120.347C588.277 118.927 589.152 117.222 589.673 115.233H598.054C597.58 118.453 596.409 121.353 594.538 123.934C592.692 126.49 590.241 128.526 587.188 130.042C584.157 131.533 580.63 132.279 576.605 132.279ZM627.464 132.279C622.54 132.279 618.22 131.107 614.503 128.763C610.81 126.419 607.921 123.141 605.838 118.927C603.778 114.713 602.749 109.788 602.749 104.154C602.749 98.472 603.778 93.5122 605.838 89.2746C607.921 85.0369 610.81 81.7461 614.503 79.4024C618.22 77.0586 622.54 75.8868 627.464 75.8868C632.389 75.8868 636.697 77.0586 640.391 79.4024C644.107 81.7461 646.996 85.0369 649.055 89.2746C651.139 93.5122 652.18 98.472 652.18 104.154C652.18 109.788 651.139 114.713 649.055 118.927C646.996 123.141 644.107 126.419 640.391 128.763C636.697 131.107 632.389 132.279 627.464 132.279ZM627.464 124.75C631.205 124.75 634.283 123.792 636.697 121.874C639.112 119.956 640.9 117.435 642.06 114.31C643.22 111.185 643.8 107.8 643.8 104.154C643.8 100.508 643.22 97.1107 642.06 93.9621C640.9 90.8134 639.112 88.2684 636.697 86.3271C634.283 84.3858 631.205 83.4152 627.464 83.4152C623.724 83.4152 620.646 84.3858 618.232 86.3271C615.817 88.2684 614.029 90.8134 612.869 93.9621C611.709 97.1107 611.129 100.508 611.129 104.154C611.129 107.8 611.709 111.185 612.869 114.31C614.029 117.435 615.817 119.956 618.232 121.874C620.646 123.792 623.724 124.75 627.464 124.75ZM659.973 151.597V76.597H668.07V85.2618H669.064C669.68 84.3148 670.532 83.1074 671.621 81.6396C672.734 80.1481 674.32 78.8224 676.38 77.6623C678.463 76.4786 681.28 75.8868 684.831 75.8868C689.424 75.8868 693.472 77.035 696.976 79.3314C700.48 81.6278 703.214 84.883 705.179 89.097C707.144 93.311 708.127 98.2826 708.127 104.012C708.127 109.788 707.144 114.795 705.179 119.033C703.214 123.247 700.492 126.514 697.012 128.834C693.532 131.131 689.519 132.279 684.973 132.279C681.47 132.279 678.664 131.699 676.557 130.539C674.45 129.355 672.828 128.017 671.692 126.526C670.556 125.011 669.68 123.756 669.064 122.762H668.354V151.597H659.973ZM668.212 103.87C668.212 107.989 668.816 111.623 670.023 114.772C671.23 117.897 672.994 120.347 675.314 122.123C677.634 123.874 680.475 124.75 683.837 124.75C687.341 124.75 690.265 123.827 692.608 121.981C694.976 120.11 696.751 117.601 697.935 114.452C699.142 111.28 699.746 107.752 699.746 103.87C699.746 100.035 699.154 96.5781 697.971 93.5004C696.81 90.3991 695.047 87.9488 692.679 86.1496C690.336 84.3266 687.388 83.4152 683.837 83.4152C680.428 83.4152 677.563 84.2793 675.243 86.0075C672.923 87.7121 671.171 90.1032 669.988 93.1808C668.804 96.2348 668.212 99.7978 668.212 103.87ZM738.78 132.279C733.525 132.279 728.991 131.119 725.179 128.799C721.391 126.455 718.468 123.188 716.408 118.998C714.372 114.784 713.354 109.883 713.354 104.296C713.354 98.7087 714.372 93.7845 716.408 89.5231C718.468 85.2381 721.332 81.9 725.002 79.5089C728.695 77.0942 733.004 75.8868 737.928 75.8868C740.769 75.8868 743.574 76.3603 746.344 77.3072C749.114 78.2542 751.635 79.793 753.908 81.9237C756.181 84.0307 757.992 86.8243 759.341 90.3044C760.691 93.7845 761.365 98.0695 761.365 103.159V106.711H719.32V99.4663H752.843C752.843 96.3887 752.227 93.6425 750.996 91.2277C749.789 88.8129 748.06 86.9071 745.811 85.5104C743.586 84.1136 740.958 83.4152 737.928 83.4152C734.59 83.4152 731.702 84.2438 729.263 85.901C726.848 87.5345 724.99 89.6652 723.688 92.293C722.386 94.9209 721.735 97.7381 721.735 100.745V105.574C721.735 109.694 722.445 113.186 723.865 116.05C725.31 118.891 727.31 121.057 729.867 122.549C732.424 124.017 735.395 124.75 738.78 124.75C740.982 124.75 742.971 124.443 744.746 123.827C746.545 123.188 748.096 122.241 749.398 120.986C750.7 119.708 751.706 118.122 752.417 116.228L760.513 118.5C759.661 121.247 758.229 123.661 756.216 125.745C754.204 127.804 751.718 129.414 748.759 130.574C745.8 131.711 742.473 132.279 738.78 132.279Z" fill="#272727"/>
</svg>
